<svg xmlns="http://www.w3.org/2000/svg" viewBox="0 0 1200 520" role="img" aria-label="Illustration: kick-off clocks in four Asian cities above a fan-demand forecast line">
  <defs><radialGradient id="bg" cx=".5" cy=".45" r=".8"><stop offset="0" stop-color="#1a1610"/><stop offset="1" stop-color="#0b0b0d"/></radialGradient>
  <style>.fc{stroke-dasharray:10 8;animation:dash 2.4s linear infinite}@keyframes dash{to{stroke-dashoffset:-36}}.pk{animation:pulse 2.4s ease-in-out infinite;transform-origin:1040px 352px}@keyframes pulse{50%{transform:scale(1.6);opacity:.35}}@media (prefers-reduced-motion:reduce){.fc,.pk{animation:none}}</style></defs>
  <rect width="1200" height="520" fill="url(#bg)"/><circle cx="225" cy="170" r="52" fill="none" stroke="#f59e0b55" stroke-width="2"/><line x1="268.0" y1="170.0" x2="274.0" y2="170.0" stroke="#f59e0b55" stroke-width="2"/><line x1="262.2" y1="191.5" x2="267.4" y2="194.5" stroke="#f59e0b55" stroke-width="2"/><line x1="246.5" y1="207.2" x2="249.5" y2="212.4" stroke="#f59e0b55" stroke-width="2"/><line x1="225.0" y1="213.0" x2="225.0" y2="219.0" stroke="#f59e0b55" stroke-width="2"/><line x1="203.5" y1="207.2" x2="200.5" y2="212.4" stroke="#f59e0b55" stroke-width="2"/><line x1="187.8" y1="191.5" x2="182.6" y2="194.5" stroke="#f59e0b55" stroke-width="2"/><line x1="182.0" y1="170.0" x2="176.0" y2="170.0" stroke="#f59e0b55" stroke-width="2"/><line x1="187.8" y1="148.5" x2="182.6" y2="145.5" stroke="#f59e0b55" stroke-width="2"/><line x1="203.5" y1="132.8" x2="200.5" y2="127.6" stroke="#f59e0b55" stroke-width="2"/><line x1="225.0" y1="127.0" x2="225.0" y2="121.0" stroke="#f59e0b55" stroke-width="2"/><line x1="246.5" y1="132.8" x2="249.5" y2="127.6" stroke="#f59e0b55" stroke-width="2"/><line x1="262.2" y1="148.5" x2="267.4" y2="145.5" stroke="#f59e0b55" stroke-width="2"/><line x1="225" y1="170" x2="202.5" y2="157.0" stroke="#f4efe6" stroke-width="5" stroke-linecap="round"/><line x1="225" y1="170" x2="225.0" y2="129.4" stroke="#f59e0b" stroke-width="3" stroke-linecap="round"/><circle cx="225" cy="170" r="5" fill="#f59e0b"/><text x="225" y="248" text-anchor="middle" font-family="ui-monospace,Menlo,monospace" font-size="16" letter-spacing="2" fill="#f4efe6" fill-opacity=".85">MUMBAI</text><text x="225" y="270" text-anchor="middle" font-family="ui-monospace,Menlo,monospace" font-size="16" fill="#f59e0b">22:00</text><circle cx="475" cy="170" r="52" fill="none" stroke="#f59e0b55" stroke-width="2"/><line x1="518.0" y1="170.0" x2="524.0" y2="170.0" stroke="#f59e0b55" stroke-width="2"/><line x1="512.2" y1="191.5" x2="517.4" y2="194.5" stroke="#f59e0b55" stroke-width="2"/><line x1="496.5" y1="207.2" x2="499.5" y2="212.4" stroke="#f59e0b55" stroke-width="2"/><line x1="475.0" y1="213.0" x2="475.0" y2="219.0" stroke="#f59e0b55" stroke-width="2"/><line x1="453.5" y1="207.2" x2="450.5" y2="212.4" stroke="#f59e0b55" stroke-width="2"/><line x1="437.8" y1="191.5" x2="432.6" y2="194.5" stroke="#f59e0b55" stroke-width="2"/><line x1="432.0" y1="170.0" x2="426.0" y2="170.0" stroke="#f59e0b55" stroke-width="2"/><line x1="437.8" y1="148.5" x2="432.6" y2="145.5" stroke="#f59e0b55" stroke-width="2"/><line x1="453.5" y1="132.8" x2="450.5" y2="127.6" stroke="#f59e0b55" stroke-width="2"/><line x1="475.0" y1="127.0" x2="475.0" y2="121.0" stroke="#f59e0b55" stroke-width="2"/><line x1="496.5" y1="132.8" x2="499.5" y2="127.6" stroke="#f59e0b55" stroke-width="2"/><line x1="512.2" y1="148.5" x2="517.4" y2="145.5" stroke="#f59e0b55" stroke-width="2"/><line x1="475" y1="170" x2="468.3" y2="144.9" stroke="#f4efe6" stroke-width="5" stroke-linecap="round"/><line x1="475" y1="170" x2="475.0" y2="210.6" stroke="#f59e0b" stroke-width="3" stroke-linecap="round"/><circle cx="475" cy="170" r="5" fill="#f59e0b"/><text x="475" y="248" text-anchor="middle" font-family="ui-monospace,Menlo,monospace" font-size="16" letter-spacing="2" fill="#f4efe6" fill-opacity=".85">JAKARTA</text><text x="475" y="270" text-anchor="middle" font-family="ui-monospace,Menlo,monospace" font-size="16" fill="#f59e0b">23:30</text><circle cx="725" cy="170" r="52" fill="none" stroke="#f59e0b55" stroke-width="2"/><line x1="768.0" y1="170.0" x2="774.0" y2="170.0" stroke="#f59e0b55" stroke-width="2"/><line x1="762.2" y1="191.5" x2="767.4" y2="194.5" stroke="#f59e0b55" stroke-width="2"/><line x1="746.5" y1="207.2" x2="749.5" y2="212.4" stroke="#f59e0b55" stroke-width="2"/><line x1="725.0" y1="213.0" x2="725.0" y2="219.0" stroke="#f59e0b55" stroke-width="2"/><line x1="703.5" y1="207.2" x2="700.5" y2="212.4" stroke="#f59e0b55" stroke-width="2"/><line x1="687.8" y1="191.5" x2="682.6" y2="194.5" stroke="#f59e0b55" stroke-width="2"/><line x1="682.0" y1="170.0" x2="676.0" y2="170.0" stroke="#f59e0b55" stroke-width="2"/><line x1="687.8" y1="148.5" x2="682.6" y2="145.5" stroke="#f59e0b55" stroke-width="2"/><line x1="703.5" y1="132.8" x2="700.5" y2="127.6" stroke="#f59e0b55" stroke-width="2"/><line x1="725.0" y1="127.0" x2="725.0" y2="121.0" stroke="#f59e0b55" stroke-width="2"/><line x1="746.5" y1="132.8" x2="749.5" y2="127.6" stroke="#f59e0b55" stroke-width="2"/><line x1="762.2" y1="148.5" x2="767.4" y2="145.5" stroke="#f59e0b55" stroke-width="2"/><line x1="725" y1="170" x2="718.3" y2="144.9" stroke="#f4efe6" stroke-width="5" stroke-linecap="round"/><line x1="725" y1="170" x2="725.0" y2="210.6" stroke="#f59e0b" stroke-width="3" stroke-linecap="round"/><circle cx="725" cy="170" r="5" fill="#f59e0b"/><text x="725" y="248" text-anchor="middle" font-family="ui-monospace,Menlo,monospace" font-size="16" letter-spacing="2" fill="#f4efe6" fill-opacity=".85">BANGKOK</text><text x="725" y="270" text-anchor="middle" font-family="ui-monospace,Menlo,monospace" font-size="16" fill="#f59e0b">23:30</text><circle cx="975" cy="170" r="52" fill="none" stroke="#f59e0b55" stroke-width="2"/><line x1="1018.0" y1="170.0" x2="1024.0" y2="170.0" stroke="#f59e0b55" stroke-width="2"/><line x1="1012.2" y1="191.5" x2="1017.4" y2="194.5" stroke="#f59e0b55" stroke-width="2"/><line x1="996.5" y1="207.2" x2="999.5" y2="212.4" stroke="#f59e0b55" stroke-width="2"/><line x1="975.0" y1="213.0" x2="975.0" y2="219.0" stroke="#f59e0b55" stroke-width="2"/><line x1="953.5" y1="207.2" x2="950.5" y2="212.4" stroke="#f59e0b55" stroke-width="2"/><line x1="937.8" y1="191.5" x2="932.6" y2="194.5" stroke="#f59e0b55" stroke-width="2"/><line x1="932.0" y1="170.0" x2="926.0" y2="170.0" stroke="#f59e0b55" stroke-width="2"/><line x1="937.8" y1="148.5" x2="932.6" y2="145.5" stroke="#f59e0b55" stroke-width="2"/><line x1="953.5" y1="132.8" x2="950.5" y2="127.6" stroke="#f59e0b55" stroke-width="2"/><line x1="975.0" y1="127.0" x2="975.0" y2="121.0" stroke="#f59e0b55" stroke-width="2"/><line x1="996.5" y1="132.8" x2="999.5" y2="127.6" stroke="#f59e0b55" stroke-width="2"/><line x1="1012.2" y1="148.5" x2="1017.4" y2="145.5" stroke="#f59e0b55" stroke-width="2"/><line x1="975" y1="170" x2="968.3" y2="144.9" stroke="#f4efe6" stroke-width="5" stroke-linecap="round"/><line x1="975" y1="170" x2="975.0" y2="210.6" stroke="#f59e0b" stroke-width="3" stroke-linecap="round"/><circle cx="975" cy="170" r="5" fill="#f59e0b"/><text x="975" y="248" text-anchor="middle" font-family="ui-monospace,Menlo,monospace" font-size="16" letter-spacing="2" fill="#f4efe6" fill-opacity=".85">HO CHI MINH</text><text x="975" y="270" text-anchor="middle" font-family="ui-monospace,Menlo,monospace" font-size="16" fill="#f59e0b">23:30</text><line x1="110" y1="462" x2="1090" y2="462" stroke="#f59e0b55" stroke-width="2"/><rect x="860" y="306" width="230" height="156" fill="#f59e0b" fill-opacity=".08"/><polyline fill="none" stroke="#f4efe6" stroke-opacity=".7" stroke-width="3" stroke-linejoin="round" points="110,430 154,418 198,424 242,403 286,421 331,427 375,411 419,387 463,417 507,423 551,414 595,395 639,420 684,426 728,407 772,374 816,413 860,418"/><polyline class="fc" fill="none" stroke="#f59e0b" stroke-width="4" stroke-linejoin="round" points="860,418 920,410 980,392 1040,352 1090,404"/><circle class="pk" cx="1040" cy="352" r="9" fill="#f59e0b"/><circle cx="1040" cy="352" r="9" fill="#f59e0b"/><text x="872" y="328" font-family="ui-monospace,Menlo,monospace" font-size="14" letter-spacing="2" fill="#f59e0b">FORECAST</text>
</svg>
